<?xml version="1.0" standalone="no"?>
<svg xmlns:xlink="http://www.w3.org/1999/xlink" id="wave" style="transform:rotate(0deg); transition: 0.3s" viewBox="0 0 1440 490" version="1.1" xmlns="http://www.w3.org/2000/svg"><defs><linearGradient id="sw-gradient-0" x1="0" x2="0" y1="1" y2="0"><stop stop-color="rgba(7, 152, 12, 0.8431372549019608)" offset="0%"/><stop stop-color="rgba(18, 200, 236, 0.843)" offset="100%"/></linearGradient></defs><path style="transform:translate(0, 0px); opacity:1" fill="url(#sw-gradient-0)" d="M0,343L40,334.8C80,327,160,310,240,277.7C320,245,400,196,480,204.2C560,212,640,278,720,302.2C800,327,880,310,960,269.5C1040,229,1120,163,1200,114.3C1280,65,1360,33,1440,65.3C1520,98,1600,196,1680,212.3C1760,229,1840,163,1920,138.8C2000,114,2080,131,2160,155.2C2240,180,2320,212,2400,245C2480,278,2560,310,2640,318.5C2720,327,2800,310,2880,326.7C2960,343,3040,392,3120,400.2C3200,408,3280,376,3360,318.5C3440,261,3520,180,3600,196C3680,212,3760,327,3840,343C3920,359,4000,278,4080,212.3C4160,147,4240,98,4320,73.5C4400,49,4480,49,4560,106.2C4640,163,4720,278,4800,277.7C4880,278,4960,163,5040,155.2C5120,147,5200,245,5280,245C5360,245,5440,147,5520,147C5600,147,5680,245,5720,294L5760,343L5760,490L5720,490C5680,490,5600,490,5520,490C5440,490,5360,490,5280,490C5200,490,5120,490,5040,490C4960,490,4880,490,4800,490C4720,490,4640,490,4560,490C4480,490,4400,490,4320,490C4240,490,4160,490,4080,490C4000,490,3920,490,3840,490C3760,490,3680,490,3600,490C3520,490,3440,490,3360,490C3280,490,3200,490,3120,490C3040,490,2960,490,2880,490C2800,490,2720,490,2640,490C2560,490,2480,490,2400,490C2320,490,2240,490,2160,490C2080,490,2000,490,1920,490C1840,490,1760,490,1680,490C1600,490,1520,490,1440,490C1360,490,1280,490,1200,490C1120,490,1040,490,960,490C880,490,800,490,720,490C640,490,560,490,480,490C400,490,320,490,240,490C160,490,80,490,40,490L0,490Z"/></svg>